Coordinates
version=1
nRows=38
nColumns=12
inDegrees=yes

Units are S.I. units (second, meters, Newtons, ...)
Angles are in degrees

endheader
time	SC_y	SC_z	SC_x	AC_y	AC_z	AC_x	GH_y	GH_z	GH_yy	EL_x	PS_y
       0.0              -24.71          27.72           10.1          63.01         -18.55         -18.51         -40.54         -7.853         -132.1          28.24          37.58
  0.008991              -24.71          27.72          10.09          63.01         -18.54          -18.5         -40.56         -7.852         -132.1          28.26          37.58
   0.01798              -24.71          27.73          10.09          63.01         -18.54          -18.5         -40.57         -7.851         -132.1          28.27          37.58
   0.02697              -24.72          27.73          10.09          63.01         -18.53          -18.5         -40.59         -7.849         -132.0          28.28          37.58
   0.03596              -24.72          27.73          10.09          63.01         -18.53          -18.5          -40.6         -7.848         -132.0           28.3          37.58
   0.04495              -24.73          27.73          10.09          63.01         -18.52         -18.49         -40.62         -7.846         -132.0          28.32          37.57
   0.05395              -24.73          27.73          10.09          63.01         -18.52         -18.49         -40.64         -7.845         -132.0          28.33          37.57
   0.06294              -24.74          27.74          10.08          63.01         -18.51         -18.49         -40.66         -7.843         -132.0          28.35          37.57
   0.07193              -24.75          27.74          10.08          63.01          -18.5         -18.49         -40.68         -7.841         -132.0          28.37          37.57
   0.08092              -24.75          27.74          10.08          63.01          -18.5         -18.48         -40.71         -7.839         -132.0          28.39          37.57
   0.08991              -24.76          27.75          10.08          63.01         -18.49         -18.48         -40.73         -7.837         -132.0          28.42          37.56
    0.0989              -24.77          27.75          10.07          63.01         -18.48         -18.47         -40.76         -7.834         -131.9          28.44          37.56
    0.1079              -24.78          27.75          10.07          63.01         -18.47         -18.47         -40.79         -7.832         -131.9          28.47          37.56
    0.1169              -24.79          27.76          10.07          63.01         -18.46         -18.47         -40.82         -7.829         -131.9           28.5          37.56
    0.1259               -24.8          27.76          10.06          63.01         -18.45         -18.46         -40.86         -7.826         -131.9          28.53          37.55
    0.1349              -24.81          27.77          10.06          63.01         -18.44         -18.45         -40.89         -7.823         -131.9          28.57          37.55
    0.1439              -24.82          27.77          10.06          63.01         -18.43         -18.45         -40.93          -7.82         -131.8           28.6          37.55
    0.1528              -24.83          27.78          10.05           63.0         -18.42         -18.44         -40.98         -7.816         -131.8          28.64          37.54
    0.1618              -24.84          27.78          10.05           63.0          -18.4         -18.43         -41.03         -7.812         -131.8          28.69          37.54
    0.1708              -24.86          27.79          10.04           63.0         -18.39         -18.43         -41.08         -7.807         -131.7          28.74          37.53
    0.1798              -24.87          27.79          10.04           63.0         -18.37         -18.42         -41.14         -7.802         -131.7          28.79          37.53
    0.1888              -24.89           27.8          10.03           63.0         -18.35         -18.41          -41.2         -7.797         -131.7          28.85          37.52
    0.1978              -24.91          27.81          10.02           63.0         -18.33          -18.4         -41.27         -7.791         -131.6          28.91          37.52
    0.2068              -24.93          27.82          10.02           63.0         -18.31         -18.39         -41.35         -7.784         -131.6          28.98          37.51
    0.2158              -24.96          27.83          10.01           63.0         -18.28         -18.37         -41.44         -7.776         -131.5          29.06           37.5
    0.2248              -24.99          27.84          9.997           63.0         -18.26         -18.36         -41.54         -7.768         -131.5          29.15          37.49
    0.2338              -25.02          27.86          9.986           63.0         -18.22         -18.34         -41.64         -7.759         -131.4          29.25          37.49
    0.2428              -25.05          27.87          9.974          62.99         -18.19         -18.33         -41.77         -7.748         -131.3          29.37          37.47
    0.2517              -25.09          27.89          9.961          62.99         -18.15          -18.3          -41.9         -7.736         -131.2          29.49          37.46
    0.2607              -25.14          27.91          9.945          62.99          -18.1         -18.28         -42.06         -7.723         -131.1          29.64          37.45
    0.2697              -25.19          27.93          9.927          62.99         -18.05         -18.26         -42.24         -7.708         -131.0           29.8          37.43
    0.2787              -25.24          27.95          9.907          62.99         -17.99         -18.22         -42.45          -7.69         -130.9          29.99          37.42
    0.2877              -25.31          27.98          9.884          62.98         -17.92         -18.19         -42.68          -7.67         -130.7          30.21           37.4
    0.2967              -25.39          28.02          9.856          62.98         -17.84         -18.15         -42.96         -7.646         -130.6          30.46          37.37
    0.3057              -25.48          28.06          9.824          62.97         -17.75          -18.1         -43.28         -7.618         -130.4          30.76          37.34
    0.3147              -25.59           28.1          9.787          62.97         -17.63         -18.04         -43.66         -7.586         -130.1          31.11          37.31
    0.3237              -25.71          28.16          9.742          62.96          -17.5         -17.98         -44.11         -7.547         -129.8          31.52          37.27
    0.3327              -25.87          28.22          9.689          62.96         -17.34          -17.9         -44.65         -7.501         -129.5          32.02          37.22
